<svg width="683" height="683" viewBox="0 0 683 683" fill="none" xmlns="http://www.w3.org/2000/svg">
<g clip-path="url(#clip0_11_7)">
<path d="M419.4 1.74601C417.8 2.41268 415.267 4.67934 413.667 6.67934C410.867 10.2793 410.733 10.946 411.133 50.946L411.533 91.4793L415.267 94.6793C420.733 99.346 428.467 99.0793 433.667 94.0127L437.533 90.146V50.0127V9.87934L433.933 5.87934C429.933 1.61268 423.933 -0.120657 419.4 1.74601Z" fill="#0099CC"/>
<path d="M302.733 27.0792C299.667 30.1459 298.867 32.1459 298.867 36.6792C298.867 42.1459 299.267 42.6792 325.8 69.4792C352.867 96.6792 356.6 99.4792 363.8 98.1459C369.4 97.0792 373.533 91.4792 373.533 84.8126C373.533 78.8126 373.533 78.8126 349.933 54.8126C336.867 41.6126 323.8 29.2126 321 27.0792C314.067 21.8792 307.933 21.8792 302.733 27.0792Z" fill="#0099CC"/>
<path d="M527.4 27.0792C524.6 29.0792 511.533 41.7459 498.6 54.9459C475 78.8126 474.867 79.0792 474.867 84.9459C474.867 91.4792 479 97.0792 484.6 98.1459C491.8 99.4792 495.533 96.6792 522.6 69.4792C549.133 42.6792 549.533 42.1459 549.533 36.6792C549.533 32.1459 548.733 30.1459 545.667 27.0792C540.467 21.8792 534.467 21.8792 527.4 27.0792Z" fill="#0099CC"/>
<path d="M324.2 136.279C322.467 137.613 310.467 156.679 297.533 178.679L273.933 218.546L235.8 218.946L197.533 219.213V208.013C197.533 188.013 190.733 173.746 176.467 163.613C160.333 152.146 136.867 152.546 121.267 164.546C107.667 174.946 101.533 188.546 101.533 208.013V219.213H80.4667C66.2 219.213 57 219.879 51.8 221.213C26.7333 227.746 8.06667 246.679 2.2 271.479C-0.733333 284.279 -0.733333 618.413 2.2 631.079C7.53333 653.746 24.8667 672.146 48.2 680.013C55.2667 682.413 65.6667 682.546 341.533 682.546H627.533L636.333 679.479C647.667 675.613 655.133 670.813 663.933 661.746C671.8 653.746 679.133 640.013 681.4 628.813C682.467 623.879 682.867 569.746 682.867 450.813C682.867 262.546 683.133 271.079 674.467 254.679C669.533 245.079 658.067 233.213 649.4 228.279C635.933 220.946 632.067 220.146 602.333 219.346L574.467 218.546L550.867 178.679C537.933 156.679 525.933 137.613 524.2 136.279C521.4 134.013 516.2 133.879 424.2 133.879C332.2 133.879 327 134.013 324.2 136.279ZM526.067 189.079C535.267 204.813 542.867 218.013 542.867 218.413C542.867 218.813 489.533 219.213 424.2 219.213C358.867 219.213 305.533 218.813 305.533 218.413C305.533 218.013 313.133 204.813 322.333 189.079L339.133 160.546H424.2H509.267L526.067 189.079ZM160.2 184.813C168.467 190.413 170.2 194.146 170.6 207.346L171.133 219.213H149.533H127.933L128.467 207.346C128.733 197.746 129.4 194.679 131.667 191.613C136.333 185.213 142.6 181.879 149.533 181.879C153.8 181.879 157.133 182.813 160.2 184.813ZM632.733 249.746C640.867 253.746 648.333 261.346 652.467 269.613L655.533 275.879V451.213V626.546L651.933 633.213C647.4 641.879 638.467 650.146 630.067 653.346C623.667 655.746 615.667 655.879 341.533 655.879C67.4 655.879 59.4 655.746 53 653.346C44.6 650.146 35.6667 641.879 31.1333 633.213L27.5333 626.546L27.1333 454.546C26.8667 332.546 27.2667 280.813 28.2 276.546C31.2667 264.146 41.9333 252.546 54.4667 247.879C58.7333 246.413 103.8 246.146 342.867 246.279L626.2 246.546L632.733 249.746Z" fill="#0099CC"/>
<path d="M397.133 285.079C385.533 287.212 370.6 291.479 361.267 295.479C355.267 298.012 350.867 303.612 350.867 308.812C350.867 312.279 355.933 318.812 359.933 320.412C363.667 322.012 365.4 321.746 376.867 317.879C416.2 304.812 455.133 307.612 490.333 326.412C551.8 359.079 580.333 431.879 557.4 497.346C542.333 540.679 507.4 573.746 463.267 586.546C391.4 607.479 315.667 568.146 291 497.346C280.2 466.546 280.6 429.879 292.2 400.546C297.133 388.012 292.467 378.546 281.267 378.546C273.667 378.546 269.4 383.879 264.467 399.479C258.333 418.946 256.867 428.679 256.867 451.212C256.867 487.079 265.4 515.079 285.267 545.212C293.133 557.079 311.267 576.012 324.2 585.746C342.733 599.746 369.133 611.346 393.133 616.146C409 619.212 439.4 619.212 455.133 616.146C507.133 605.879 550.733 572.546 574.6 525.212C599.8 475.212 597.4 413.346 568.467 365.479C543.667 324.412 505.667 297.079 458.2 286.412C445.267 283.479 410.467 282.812 397.133 285.079Z" fill="#0099CC"/>
<path d="M107.4 330.946C100.6 336.413 99.8 343.879 105.4 350.146L109.267 354.546H149.533H189.8L193.667 350.146C197.8 345.479 198.467 341.346 195.933 335.879C192.733 328.946 190.333 328.546 148.6 328.546C114.2 328.546 109.933 328.813 107.4 330.946Z" fill="#0099CC"/>
<path d="M307.8 330.013C304.867 331.746 301.533 338.146 301.533 342.413C301.533 344.279 303.267 347.746 305.4 350.146C308.6 353.746 310.2 354.546 314.867 354.546C328.2 354.546 333 336.546 321.4 330.413C317.133 328.279 311.267 328.013 307.8 330.013Z" fill="#0099CC"/>
<path d="M402.867 343.879C370.6 350.413 342.867 371.213 327.667 400.546C319.933 415.346 316.333 428.679 315.267 445.213C311 519.613 382.6 576.546 454.467 555.746C520.2 536.679 552.333 463.079 521.533 402.013C499.667 358.413 450.467 334.279 402.867 343.879ZM444.867 371.213C474.067 378.679 498.733 404.146 504.867 433.346C513.933 475.879 488.467 518.013 446.2 530.679C434.867 534.146 411.8 533.879 400.6 530.279C359 516.679 334.6 475.346 343.533 433.346C348.067 411.879 364.733 389.613 384.333 378.679C402.2 368.813 424.6 366.013 444.867 371.213Z" fill="#0099CC"/>
<path d="M419.4 399.212C417.8 399.746 415.267 402.012 413.533 404.146C411.267 407.079 410.733 408.946 411.267 413.212C412.2 420.279 416.6 423.879 425.533 425.079C429.4 425.612 434.2 426.812 436.2 427.879C441.933 430.812 447.933 438.679 448.867 444.146C450.867 455.746 452.733 459.746 457.667 462.412C463.267 465.479 468.2 464.679 473.133 459.746C476.2 456.679 476.467 455.612 475.933 446.812C474.6 423.346 456.867 403.746 433 399.346C423.8 397.612 423.133 397.612 419.4 399.212Z" fill="#0099CC"/>
</g>
<defs>
<clipPath id="clip0_11_7">
<rect width="682.667" height="682.667" fill="white"/>
</clipPath>
</defs>
</svg>
