<svg width="683" height="683" viewBox="0 0 683 683" fill="none" xmlns="http://www.w3.org/2000/svg">
<path d="M62 147.333C59.8667 149.333 58.6667 152.133 58.6667 154.667C58.6667 157.2 59.8667 160 62 162C65.2 165.333 65.4667 165.333 90.6667 165.333C115.867 165.333 116.133 165.333 119.333 162C121.467 160 122.667 157.2 122.667 154.667C122.667 152.133 121.467 149.333 119.333 147.333C116.133 144 115.867 144 90.6667 144C65.4667 144 65.2 144 62 147.333Z" fill="#0099CC"/>
<path d="M131.333 147.333C129.2 149.333 128 152.133 128 154.667C128 157.2 129.2 160 131.333 162L134.533 165.333H201.333H268.133L271.333 162C275.733 157.733 275.733 151.6 271.333 147.333L268.133 144H201.333H134.533L131.333 147.333Z" fill="#0099CC"/>
<path d="M88.6667 221.867C84.2667 226.267 84.2667 232.4 88.6667 236.667L91.8667 240H223.6C303.333 240 361.067 240.533 370 241.333C391.2 243.333 410.267 248.267 426 255.867C441.2 263.2 451.067 270 475.067 289.733L492 303.733L505.067 305.333C553.733 311.2 594.933 327.6 609.6 346.933C618.133 358.133 618.667 360.533 618.667 386C618.667 409.067 618.667 409.467 615.333 412.667C612.267 415.867 611.333 416 596.267 416H580.267L579.467 411.467C577.733 402.533 569.6 388.667 561.6 381.067C536 356.667 498.667 356.667 473.067 381.067C465.067 388.667 456.933 402.533 455.2 411.467L454.4 416H357.333H260.267L259.467 411.467C257.733 402.533 249.6 388.667 241.6 381.067C216 356.667 178.667 356.667 153.067 381.067C145.067 388.667 136.933 402.533 135.2 411.467L134.4 416H106.4C78.6667 416 78.5333 416 75.3333 419.333C70.9333 423.6 70.9333 429.733 75.3333 434C78.5333 437.333 78.6667 437.333 106.4 437.333H134.4L135.2 441.867C136.933 450.8 145.067 464.667 153.067 472.267C178.667 496.667 216 496.667 241.6 472.267C249.6 464.667 257.733 450.8 259.467 441.867L260.267 437.333H357.333H454.4L455.2 441.867C456.933 450.8 465.067 464.667 473.067 472.267C498.667 496.667 536 496.667 561.6 472.267C569.6 464.667 577.733 450.8 579.467 441.867L580.267 437.333H596.267C616.667 437.333 621.467 435.867 630.133 427.333C639.467 418 640.267 414.4 639.733 382.667C639.333 356.667 639.333 356.667 635.2 347.867C630.4 337.733 617.6 323.333 606.667 316C584.533 300.933 554.133 290.8 513.6 284.8L499.733 282.8L488.933 273.6C451.2 241.467 425.733 228.533 387.333 221.733C376.933 219.867 356.133 219.467 233.733 219.067L92 218.533L88.6667 221.867ZM214.8 387.867C224 392.267 229.733 397.733 234.8 406.933C238.933 414.667 239.333 416.267 239.333 426.667C239.333 437.067 238.933 438.667 234.8 446.4C229.733 455.733 225.467 459.733 215.467 465.067C209.733 468 206.933 468.533 197.333 468.533C186.933 468.667 185.333 468.267 177.6 464.133C168.4 459.2 163.067 453.467 158.4 444C154.133 435.2 154.267 417.867 158.667 408.667C164.267 397.2 175.067 388.4 187.333 385.2C193.867 383.467 208.4 384.933 214.8 387.867ZM534.8 387.867C544 392.267 549.733 397.733 554.8 406.933C558.933 414.667 559.333 416.267 559.333 426.667C559.333 437.067 558.933 438.667 554.8 446.4C549.733 455.733 545.467 459.733 535.467 465.067C529.733 468 526.933 468.533 517.333 468.533C506.933 468.667 505.333 468.267 497.6 464.133C488.4 459.2 483.067 453.467 478.4 444C474.133 435.2 474.267 417.867 478.667 408.667C484.267 397.2 495.067 388.4 507.333 385.2C513.867 383.467 528.4 384.933 534.8 387.867Z" fill="#0099CC"/>
<path d="M38 275.333C35.8667 277.333 34.6667 280.133 34.6667 282.667C34.6667 285.2 35.8667 288 38 290L41.2 293.333H105.333H169.467L172.667 290C174.8 288 176 285.2 176 282.667C176 280.133 174.8 277.333 172.667 275.333L169.467 272H105.333H41.2L38 275.333Z" fill="#0099CC"/>
<path d="M450.267 297.333C447.733 299.467 443.067 302.533 439.867 304C434.267 306.533 430.933 306.667 344.267 306.667H254.533L251.333 310C246.933 314.267 246.933 320.4 251.333 324.667L254.533 328H344.267C439.467 328 440.533 327.867 452.933 321.6C456 320 460.933 316.4 464 313.6C470.533 307.333 471.2 301.733 466 296.667C461.467 292.133 455.867 292.267 450.267 297.333Z" fill="#0099CC"/>
<path d="M272.667 534C270.533 536 269.333 538.8 269.333 541.333C269.333 543.867 270.533 546.667 272.667 548.667C275.867 552 276 552 302.667 552C329.333 552 329.467 552 332.667 548.667C334.8 546.667 336 543.867 336 541.333C336 538.8 334.8 536 332.667 534C329.467 530.667 329.333 530.667 302.667 530.667C276 530.667 275.867 530.667 272.667 534Z" fill="#0099CC"/>
<path d="M347.333 534C345.2 536 344 538.8 344 541.333C344 543.867 345.2 546.667 347.333 548.667L350.533 552H414.667H478.8L482 548.667C484.133 546.667 485.333 543.867 485.333 541.333C485.333 538.8 484.133 536 482 534L478.8 530.667H414.667H350.533L347.333 534Z" fill="#0099CC"/>
</svg>
