<svg width="683" height="683" viewBox="0 0 683 683" fill="none" xmlns="http://www.w3.org/2000/svg">
<g clip-path="url(#clip0_11_35)">
<path d="M336.133 1.8665C324.533 8.2665 329.467 26.6665 342.667 26.6665C349.467 26.6665 356 20.1332 356 13.4665C356 3.4665 344.933 -3.06683 336.133 1.8665Z" fill="#0099CC"/>
<path d="M262.133 13.3332C198.667 34.1332 144.8 81.4666 115.333 142C89.0667 196 82.5334 257.333 97.0667 314.667C108.4 358.933 128.533 395.6 159.867 428.267C166.533 435.2 172 441.333 172 441.733C172 442.133 153.733 474.667 131.333 514.133C108.933 553.6 90.6667 587.333 90.6667 589.067C90.6667 594 94.2667 599.467 98.6667 601.333C102.533 602.933 107.467 602.133 150.133 593.333C176.133 588 197.6 583.867 197.867 584.133C198.133 584.4 205.333 604.133 213.733 628C231.867 679.333 231.467 678.4 236.133 680.8C242.133 683.867 246.533 683.067 251.2 678.267C253.467 676 274.933 639.6 298.667 597.733C322.533 555.733 342.267 521.333 342.667 521.333C343.067 521.333 362.8 555.733 386.667 597.733C410.4 639.6 431.867 676 434.133 678.4C438.8 683.067 443.2 683.867 449.2 680.8C453.867 678.4 453.467 679.333 471.6 628C480 604.133 487.2 584.4 487.467 584.133C487.733 583.867 509.2 588 535.2 593.333C577.867 602.133 582.8 602.933 586.667 601.333C591.067 599.467 594.667 594 594.667 588.933C594.667 587.2 576.4 553.6 554 514.133C531.6 474.8 513.333 442.133 513.333 441.6C513.333 441.067 516.4 437.6 520.133 434C560.4 394.933 587.333 339.733 594 282.667C606.667 175.333 550.133 72.3999 452.667 25.3332C434.933 16.7999 409.333 7.99991 401.867 7.99991C391.333 7.99991 384.933 22.1332 392.4 29.3332C394.133 30.9332 402.933 34.7999 412.667 37.9999C459.733 53.4666 498.267 81.5999 527.333 122C537.867 136.533 553.067 166.8 558.4 184C579.333 250.4 569.2 322.533 530.933 379.333C493.333 435.2 433.467 471.333 366.4 478.533C273.333 488.667 182.267 438.8 140 354.667C113.733 302.4 109.067 240.8 126.933 184C132.267 166.8 147.333 136.667 158.267 121.333C169.867 105.067 194.4 80.5332 210.667 68.9332C226.4 57.8666 256.267 42.9332 274 37.3332C290.533 32.2666 292.667 31.1999 294.533 27.0666C297.2 21.3332 296.267 16.1332 292.133 11.8666C286.8 6.66658 281.733 6.79991 262.133 13.3332ZM205.467 466.133C234.667 485.333 278 501.067 311.733 504.8C316.267 505.333 319.867 506.133 319.733 506.667C318.133 510.267 246 636 245.467 636C245.067 636 240.267 623.2 234.8 607.6C218 559.6 217.6 558.8 212.533 556.267C208.133 554.267 206.8 554.4 169.733 562.267C148.533 566.667 131.2 570.133 130.933 569.867C130.4 569.467 193.067 458.667 193.867 458.667C194 458.667 199.2 462 205.467 466.133ZM523.867 514.933C540.8 544.8 554.667 569.467 554.667 569.733C554.667 570 537.2 566.533 516 562.133C478.533 554.4 477.2 554.267 472.8 556.267C467.733 558.8 467.333 559.6 450.533 607.6C445.067 623.2 440.267 636 439.867 636C439.333 636 367.067 510.267 365.6 506.667C365.467 506.133 369.067 505.333 373.6 504.8C407.2 501.067 447.6 486.533 478.667 466.933C485.6 462.533 491.733 459.333 492.267 459.733C492.667 460.267 506.933 485.067 523.867 514.933Z" fill="#0099CC"/>
<path d="M318.667 54.6666C268.4 61.5999 226 84.1332 192.267 122.133C169.733 147.2 154.133 178.8 146.533 214.667C142.133 234.8 142.133 271.867 146.533 292C156.133 336.8 176.667 372.4 210.667 403.067C235.867 425.867 268 441.867 304 449.467C324.133 453.867 361.2 453.867 381.333 449.467C462.133 432.267 521.6 372.8 538.8 292C541.333 280.4 541.867 273.867 541.867 253.333C541.867 232.8 541.333 226.267 538.8 214.667C521.6 134 461.867 74.1332 382 57.3332C366.8 54.1332 332.8 52.6666 318.667 54.6666ZM378.667 83.8666C413.067 91.7332 439.2 106 464.133 130.667C489.733 155.867 505.067 184.133 512.8 220C516.133 235.733 516.267 270.8 512.8 286.4C505.067 322.4 489.6 350.8 464.133 376C438.8 401.2 411.467 415.867 376 423.467C360.267 426.8 325.2 426.933 309.6 423.467C273.6 415.733 245.2 400.267 220 374.8C194.8 349.333 180.267 322.267 172.533 286.667C169.067 270.8 169.067 235.867 172.533 220.133C180.267 184.267 194.667 157.467 220 131.867C247.467 104 281.733 86.7999 320.133 81.3332C333.333 79.4666 365.467 80.7999 378.667 83.8666Z" fill="#0099CC"/>
<path d="M336.267 125.733C334 126.8 328.267 136.8 315.867 161.6C306.4 180.533 298.533 196 298.267 196C284 197.467 222.133 208.133 220.533 209.467C217.2 212.133 214.667 219.067 215.6 222.8C216 224.533 228.533 238.267 243.6 253.467L270.8 280.8L264.667 317.333C261.333 337.333 258.933 355.467 259.333 357.467C259.733 359.333 261.6 362.4 263.467 364.133C269.733 370 273.733 368.667 308.933 350.267C326.667 340.933 341.867 333.333 342.8 333.333C343.6 333.333 358.8 340.933 376.533 350.267C411.6 368.8 415.6 370 421.867 364.133C423.733 362.4 425.6 359.467 426 357.467C426.4 355.6 424 337.467 420.667 317.333L414.533 280.8L442.133 253.2C467.067 228.267 469.6 225.333 469.733 221.067C469.867 215.6 466.533 209.733 462.133 208C460.533 207.467 444.533 204.667 426.533 202.133C408.667 199.467 392.267 196.933 390.267 196.533C386.933 195.867 384.933 192.4 369.467 161.467C355.733 134.267 351.6 126.933 348.8 125.6C344.4 123.6 340.4 123.733 336.267 125.733ZM355.6 192.667C363.067 207.333 369.2 218 370.933 219.2C372.667 220.267 384.8 222.667 398 224.667C411.2 226.533 423.467 228.533 425.067 229.067C428 230 426.533 231.733 408.267 249.467C397.067 260.267 387.867 270.267 387.333 272.133C386.933 273.867 388.533 287.467 391.067 302.4C393.6 317.2 395.333 329.333 394.933 329.333C394.667 329.333 383.333 323.6 369.867 316.667C356.267 309.733 344.133 304 342.8 304C341.467 304 329.2 309.733 315.6 316.667C302.133 323.6 290.667 329.333 290.4 329.333C290 329.333 291.733 317.2 294.267 302.4C296.8 287.467 298.4 273.867 298 272C297.467 270.133 288.533 260.4 276.933 249.2C257.067 230 256.8 229.6 260.667 228.933C262.933 228.4 275.2 226.533 288 224.533C300.8 222.667 312.667 220.267 314.4 219.2C316.133 218 322.267 207.467 329.733 192.667C336.4 179.067 342.267 168 342.667 168C343.067 168 348.933 179.067 355.6 192.667Z" fill="#0099CC"/>
</g>
<defs>
<clipPath id="clip0_11_35">
<rect width="682.667" height="682.667" fill="white"/>
</clipPath>
</defs>
</svg>
