<svg width="683" height="683" viewBox="0 0 683 683" fill="none" xmlns="http://www.w3.org/2000/svg">
<g clip-path="url(#clip0_11_27)">
<path d="M329.2 5.47452L324.667 10.0078V43.4745C324.667 80.0078 325.2 82.9412 332 86.0078C338.4 88.9412 344.4 87.4745 348.933 81.7412C351.067 79.2078 351.333 75.2078 351.333 45.3412C351.333 9.07451 350.933 6.14118 344.533 2.80785C338.533 -0.258818 334.133 0.541182 329.2 5.47452Z" fill="#0099CC"/>
<path d="M111.2 8.80791C108.133 11.8746 107.333 13.8746 107.333 18.4079C107.333 24.1412 107.6 24.4079 135.067 51.8746L162.8 79.6079H168.933C175.6 79.6079 181.2 75.4746 182.267 69.8746C183.6 62.6746 180.8 58.9412 153.6 31.8746C126.8 5.34124 126.267 4.94124 120.8 4.94124C116.267 4.94124 114.267 5.74124 111.2 8.80791Z" fill="#0099CC"/>
<path d="M546.533 8.80791C543.733 10.9412 530.667 23.3412 517.733 36.5412C494.8 59.7412 494 60.8079 494 66.0079C494 69.8746 494.933 72.5412 497.467 75.4746C500.4 78.9412 501.867 79.6079 507.067 79.6079H513.2L540.933 51.8746C568.4 24.4079 568.667 24.1412 568.667 18.4079C568.667 13.8746 567.867 11.8746 564.8 8.80791C559.6 3.60791 553.467 3.60791 546.533 8.80791Z" fill="#0099CC"/>
<path d="M285.067 112.141C282.133 113.074 277.733 115.208 275.6 116.808C271.867 119.341 270.933 119.474 264.667 118.141C243.733 113.608 220.267 126.808 212.667 147.341C210.4 153.341 209.867 157.208 210.267 165.874L210.667 176.674L206 178.141C198.8 180.274 188.8 187.341 184.4 193.474C176.8 203.874 174.8 209.874 174.8 223.208V235.341L167.733 238.274C158.133 242.274 148.667 251.074 144 260.541C140.4 267.474 140 269.608 140 280.941C140 292.008 140.4 294.408 143.6 300.408L147.067 307.341L141.6 309.741C133.2 313.474 122.8 324.674 119.2 333.874C114.8 345.341 115.067 359.074 119.867 369.608C121.867 374.008 125.333 379.608 127.733 382.008L131.867 386.274L110 408.408C90.8 427.474 87.6 430.274 84.6667 429.741C69.4667 426.408 66.9333 426.141 59.6 427.741C47.3333 430.274 42.2667 433.608 23.8667 452.141C2.4 473.741 0 477.874 0 494.941C0 512.541 2.53333 516.941 26.4 540.541C44.9333 559.074 45.7333 559.608 51.2 559.608C58.8 559.608 64.6667 554.141 64.6667 546.941C64.6667 542.408 63.2 540.408 46.1333 522.941C19.6 495.874 19.6 494.941 43.8667 470.541L60.1333 454.274H66.9333C72.9333 454.274 74.6667 454.941 80.2667 459.474C83.7333 462.274 118.267 496.408 157.067 535.208C210.133 588.408 227.733 606.941 228.667 610.274C231.067 618.808 228.667 623.074 211.733 639.874C194.533 656.808 190.267 659.074 181.6 655.474C179.333 654.541 169.2 645.741 159.2 636.008C142.533 619.741 140.533 618.274 136 618.274C128.8 618.274 123.333 624.141 123.333 631.874C123.333 637.474 123.733 638.008 143.067 657.074C166.667 680.408 170.667 682.808 187.333 682.808C204.4 682.941 211.333 679.074 232.267 658.008C252.267 637.741 256 631.074 255.867 615.608C255.867 608.674 254.933 603.341 252.933 598.274L250 590.941L275.6 565.341C292.4 548.408 302.8 539.074 305.6 538.141C308.533 537.208 320.667 536.941 341.6 537.474L373.333 538.274L400.4 565.341L427.467 592.408L425.2 598.274C423.867 601.741 422.933 608.408 422.8 614.274C422.667 630.008 426.933 637.608 448.267 658.408C469.2 678.941 473.867 681.474 490 681.608C510.8 681.608 504.667 686.541 593.067 598.408C682.267 509.474 678.667 513.874 678.667 493.608C678.667 482.541 678.267 480.941 674.133 473.341C670.933 467.341 664.8 460.274 652.667 448.541C638.533 434.541 634.533 431.474 627.867 428.941C618.133 425.341 603.867 425.074 595.467 428.408L589.733 430.674L567.6 408.541L545.6 386.541L550.667 379.608C553.333 375.874 556.8 369.074 558.267 364.541C565.067 343.074 554.133 318.808 533.333 309.074C530 307.474 526.4 306.274 525.2 306.274C523.733 306.274 523.333 305.474 524.133 303.341C525.733 298.141 524.8 282.808 522.533 276.808C517.467 263.874 505.733 252.274 494 248.808L489.333 247.341V234.541C489.333 223.074 488.933 220.674 485.6 214.008C480.933 204.674 469.733 194.141 461.067 190.941L454.533 188.674L454.667 176.408C454.667 166.008 454.133 163.208 451.2 156.808C443.067 139.474 430 131.074 408 128.941C400.667 128.274 375.733 124.141 352.667 119.608C306.4 110.674 293.6 109.341 285.067 112.141ZM336.667 143.874C353.2 146.941 366.933 149.608 367.333 149.874C367.6 150.141 360.133 158.141 350.667 167.608L333.467 184.808L328.133 181.874C319.733 177.341 300.533 157.474 296.267 148.941C294.267 144.941 292.667 140.408 292.667 139.074C292.667 136.808 293.467 136.674 299.733 137.341C303.467 137.874 320.133 140.674 336.667 143.874ZM264.667 146.274C265.733 146.808 267.733 150.141 268.933 153.608C276.533 174.141 302 199.741 325.2 210.274C332.933 213.741 334 214.808 335.2 219.208C338 229.341 331.067 241.208 321.333 243.074C310 245.208 309.067 244.541 273.6 209.208C255.333 191.074 239.6 174.674 238.533 172.674C235.867 167.474 236.133 158.408 239.333 153.208C244.267 145.208 256.533 141.874 264.667 146.274ZM414.933 157.074C420.667 159.208 425.867 164.941 427.467 170.541C429.867 179.741 427.6 183.874 410 201.608C394.4 217.474 394 218.008 394 223.874C394 231.874 398.933 236.941 407.067 236.941C412.267 236.941 413.467 236.141 423.067 226.941C433.733 216.808 438.133 214.274 444.4 214.274C449.733 214.274 458.133 219.741 460.8 224.941C466.533 235.741 462.8 244.141 444.533 261.608C438.4 267.474 432.267 273.741 431.067 275.608C425.067 284.274 431.333 295.608 442 295.608C447.067 295.608 448.4 294.808 458.533 285.074C465.733 278.141 470.933 274.274 473.867 273.608C482.933 271.608 491.867 275.741 496 283.608C498.4 288.141 498.667 297.208 496.533 301.341C495.733 302.941 488.533 310.941 480.533 319.074C466.8 333.074 466 334.141 466 339.341C466 346.808 470.133 351.474 477.6 352.541C483.067 353.208 483.467 353.074 492.267 344.674C506.4 331.074 513.333 328.808 523.467 334.541C530.533 338.541 534.533 346.808 533.333 354.541C532.4 359.608 530.133 362.408 513.2 379.741C494.933 398.274 494 399.474 494 404.541C494 413.208 502.133 419.874 510.4 417.741C512.133 417.341 516.4 414.541 519.867 411.474L526.267 405.874L547.733 427.341L569.333 448.941L507.6 510.541L446 572.274L424 550.274L401.867 528.141L414 516.141C426.8 503.341 428 500.674 424.133 493.074C421.867 488.941 416.933 486.274 411.067 486.274C407.867 486.274 405.067 488.141 397.467 495.608C381.867 510.674 374 512.674 339.2 510.408C315.867 508.941 302.533 510.008 292.933 514.274C288.267 516.274 279.6 524.141 259.067 544.541L231.467 572.008L170.133 510.941C136.267 477.341 108.667 449.208 108.667 448.408C108.667 447.608 118.267 437.341 129.867 425.741L151.067 404.541L157.6 407.341C170.933 413.074 185.333 412.274 198.533 405.208C210.267 398.808 219.867 385.074 221.6 371.874C222.533 364.941 223.6 363.608 228.933 363.608C235.467 363.608 247.067 358.274 253.867 352.141C261.733 345.074 267.2 334.541 268.533 324.674L269.333 317.608L276.4 316.808C286.267 315.474 296.8 310.008 303.867 302.141C310 295.341 315.333 283.741 315.333 277.208C315.333 271.874 316.667 270.808 324 269.741C338.8 267.874 352.133 257.341 359.067 242.541C363.867 232.141 364 216.941 359.333 206.541L356.267 199.341L375.467 180.141C398.8 156.808 404.8 153.208 414.933 157.074ZM225.733 203.474C230.4 204.941 275.867 247.341 284.133 258.141C294.8 272.008 286.267 290.274 269.333 290.274C266.667 290.274 263.2 289.608 261.6 288.808C260 288.008 246.267 274.941 230.933 259.741C200.933 229.874 199.2 227.474 201.867 217.208C203.467 211.341 209.2 205.341 214.8 203.608C220 202.141 220.667 202.141 225.733 203.474ZM191.333 262.274C197.333 263.874 240 306.274 241.333 312.008C242.667 317.341 241.333 325.474 238.533 329.341C232.133 338.008 219.467 339.608 210.533 333.074C202.667 327.341 170.667 294.274 168.133 289.341C163.467 280.008 167.333 268.541 176.933 263.741C183.467 260.541 184.8 260.408 191.333 262.274ZM169.467 332.941C174.4 334.941 191.333 351.341 193.467 356.541C200 371.874 186.267 387.741 170.267 383.341C163.467 381.474 145.467 363.474 143.6 356.674C139.467 341.341 154.533 327.341 169.467 332.941ZM634.8 469.208C651.867 486.408 653.6 489.208 652 498.008C651.2 502.274 642.267 511.874 576.933 577.208C536.133 618.141 500.8 652.541 498.533 653.608C493.467 656.008 487.733 656.141 483.733 653.874C482 652.941 474.133 645.608 466 637.741C450.667 622.408 448 618.008 449.6 609.741C450.133 606.541 465.6 590.274 523.867 531.741C564.267 491.208 599.2 456.808 601.333 455.474C603.867 453.874 607.733 452.941 612 452.941H618.533L634.8 469.208Z" fill="#0099CC"/>
<path d="M448.4 445.608C440.8 449.875 439.6 460.008 445.867 466.408C455.333 475.741 471.467 466.141 467.333 453.608C466.533 451.208 464.8 448.275 463.467 447.075C460 443.875 452.667 443.208 448.4 445.608Z" fill="#0099CC"/>
<path d="M86.5333 575.474C84.9333 576.141 82.4 578.408 80.6666 580.541C76.8 585.474 77.6 593.608 82.6666 597.874C90.9333 605.074 104.667 599.074 104.667 588.408C104.667 579.608 94.2666 572.274 86.5333 575.474Z" fill="#0099CC"/>
</g>
<defs>
<clipPath id="clip0_11_27">
<rect width="682.667" height="682.667" fill="white"/>
</clipPath>
</defs>
</svg>
