<svg width="683" height="683" viewBox="0 0 683 683" fill="none" xmlns="http://www.w3.org/2000/svg">
<g clip-path="url(#clip0_11_41)">
<path d="M335.656 2.40012C333.39 4.26679 330.323 12.0001 323.79 32.0001L314.99 59.2001L284.59 59.8668L254.056 60.5335L251.39 64.1335C246.456 70.6668 248.856 73.4668 273.79 91.6001C286.323 100.667 296.856 108.4 297.39 108.933C298.056 109.6 294.59 122 289.79 136.8C284.99 151.6 281.123 164.667 281.123 166.133C281.123 170.8 284.99 174.533 289.79 174.533C293.523 174.533 298.59 171.467 317.256 157.867C329.923 148.667 340.59 141.2 341.123 141.2C341.656 141.2 352.456 148.667 365.123 157.867C383.523 171.2 388.99 174.533 392.59 174.533C397.256 174.533 401.123 170.8 401.123 166.133C401.123 164.267 387.656 120.533 384.19 111.067C383.923 110.133 393.123 102.667 404.723 94.4001C434.59 72.9335 436.323 70.9335 430.323 63.4668L427.656 59.8668L397.39 59.6001L367.256 59.2001L358.456 32.1335C351.923 11.8668 348.99 4.26679 346.59 2.40012C342.723 -0.799876 339.523 -0.799876 335.656 2.40012ZM346.99 58.4001C349.656 67.2001 352.856 75.0668 354.056 76.1335C355.523 77.3335 362.19 78.1335 374.723 78.5335L393.256 79.2001L379.256 89.2001C371.39 94.8001 364.59 100.667 363.79 102.533C362.723 105.2 363.523 109.067 367.79 122.533C370.59 131.6 372.856 139.2 372.723 139.333C372.59 139.467 366.19 135.067 358.59 129.467C349.656 122.933 343.523 119.467 341.256 119.467C338.99 119.467 332.856 123.067 323.79 129.6C316.056 135.067 309.656 139.6 309.523 139.467C309.39 139.2 311.656 131.6 314.59 122.533C318.856 108.933 319.656 105.333 318.456 102.533C317.656 100.667 310.99 94.8001 302.99 89.2001L288.99 79.2001L307.523 78.5335C320.056 78.1335 326.723 77.3335 328.19 76.1335C329.39 75.0668 332.59 67.2001 335.256 58.4001C338.056 49.7335 340.59 42.5335 341.123 42.5335C341.656 42.5335 344.19 49.7335 346.99 58.4001Z" fill="#0099CC"/>
<path d="M102.456 74.9333C99.6564 76.2666 97.7897 80.6666 89.9231 104.933L80.5897 133.2H50.8564C22.5897 133.2 20.9897 133.333 18.3231 136C16.4564 137.867 15.7897 140 16.0564 143.6C16.4564 148.267 17.3897 149.2 39.7897 165.467C52.5897 174.8 63.2564 182.933 63.5231 183.733C63.7897 184.4 59.9231 197.067 55.1231 211.867C45.6564 240.533 45.2564 243.467 51.2564 247.467C56.1897 250.667 58.3231 249.467 84.3231 230.667L106.723 214.267L112.856 218.667C116.323 221.2 127.123 228.933 136.99 236.133C146.856 243.333 155.79 249.2 156.723 249.2C159.123 249.2 164.19 246.533 165.39 244.667C167.656 241.333 166.056 233.867 157.79 209.2C152.99 195.067 149.256 183.333 149.523 183.2C149.656 183.067 160.056 175.6 172.456 166.533C184.99 157.6 195.923 149.333 196.856 148.133C199.256 145.067 198.856 140.667 195.923 137.067C193.39 133.867 192.856 133.867 163.123 133.2L132.856 132.533L124.19 105.867C113.923 74.1333 111.39 70.5333 102.456 74.9333ZM112.456 131.867C115.256 140.267 118.323 148.267 119.39 149.467C121.123 151.467 124.456 151.867 140.323 152.133L159.123 152.533L144.056 163.467C126.323 176.533 126.59 175.867 133.79 197.2C136.323 204.8 138.456 211.6 138.456 212.267C138.456 212.8 134.856 210.8 130.456 207.6C126.056 204.4 119.656 199.867 116.323 197.467C112.856 195.2 108.59 193.2 106.723 193.2C104.59 193.2 98.1897 196.933 89.5231 203.2C82.0564 208.667 75.5231 213.2 75.2564 213.2C74.9897 213.2 77.1231 205.867 80.0564 196.8C83.6564 186.133 85.2564 179.2 84.7231 177.067C84.1897 174.8 79.3897 170.533 69.9231 163.867C62.1897 158.4 55.9231 153.467 55.7897 152.8C55.7897 152.267 63.6564 151.867 73.2564 151.867C82.8564 151.867 91.7897 151.2 93.1231 150.533C94.8564 149.6 97.2564 144.133 100.59 133.467C105.523 117.733 106.323 115.333 107.123 116.133C107.39 116.4 109.79 123.467 112.456 131.867Z" fill="#0099CC"/>
<path d="M570.056 76.1333C567.39 78.5333 564.59 85.4666 558.056 105.867L549.39 132.533L519.123 133.2C489.39 133.867 488.856 133.867 486.323 137.067C483.39 140.667 482.99 145.067 485.523 148.133C486.323 149.333 497.39 157.6 509.79 166.533C522.323 175.6 532.59 183.067 532.723 183.2C532.99 183.333 529.256 195.067 524.456 209.2C516.19 233.867 514.59 241.333 516.856 244.667C518.056 246.533 523.123 249.2 525.523 249.2C526.456 249.2 537.523 241.733 550.056 232.667C562.59 223.6 573.39 215.867 574.323 215.333C575.123 214.8 585.123 221.2 598.056 230.667C623.656 249.467 626.056 250.667 630.99 247.467C636.856 243.467 636.59 240.667 627.123 211.867C622.323 196.933 618.59 184.267 618.723 183.6C618.99 183.067 629.656 174.8 642.456 165.467C664.856 149.2 665.79 148.267 666.19 143.6C666.456 140 665.79 137.867 663.923 136C661.256 133.333 659.656 133.2 631.39 133.2H601.656L592.59 105.333C587.656 89.9999 582.856 76.7999 582.056 76.1333C578.323 72.9333 573.523 72.9333 570.056 76.1333ZM581.79 133.467C584.99 144 587.39 149.6 589.123 150.533C590.456 151.2 599.39 151.867 608.99 151.867C618.59 151.867 626.456 152.267 626.456 152.8C626.456 153.467 620.056 158.267 612.456 163.733C603.123 170.4 598.056 174.8 597.523 176.933C597.123 178.933 598.723 186.267 602.19 196.667C605.123 205.733 607.256 213.2 606.99 213.2C606.856 213.2 600.323 208.667 592.723 203.2C584.056 196.933 577.656 193.2 575.523 193.2C572.59 193.2 560.59 200.8 547.79 210.8C546.056 212.267 544.323 212.933 544.19 212.267C543.923 211.6 545.923 204.933 548.456 197.2C555.656 175.867 555.923 176.533 538.19 163.467L523.123 152.533L541.923 152.133C557.79 151.867 561.123 151.467 562.723 149.467C563.923 148.267 567.123 140.133 569.923 131.6C572.723 122.933 575.39 116.4 575.923 116.933C576.456 117.467 579.123 124.933 581.79 133.467Z" fill="#0099CC"/>
<path d="M321.79 210.667C234.723 217.467 155.523 275.067 123.123 355.467C109.523 389.2 105.79 408.4 105.79 446.533C105.79 471.067 106.323 477.333 108.856 490.267C134.723 618.667 255.656 701.467 383.79 678.533C478.456 661.467 554.19 586.533 573.123 491.067C576.856 472.667 578.19 437.6 575.923 418.933C562.323 306 471.923 219.333 358.056 210.533C340.19 209.2 340.856 209.2 321.79 210.667ZM384.456 233.2C429.256 242.8 466.856 263.733 498.323 296.667C556.99 358.133 574.323 448.267 542.59 527.067C515.39 594.933 454.056 645.733 383.123 659.2C311.123 673.067 238.456 650.667 187.123 598.933C90.8564 502.133 106.99 342.133 220.59 265.467C245.79 248.4 276.456 236.4 308.99 231.2C326.19 228.4 367.123 229.467 384.456 233.2Z" fill="#0099CC"/>
<path d="M321.656 250.533C275.656 255.467 235.123 274.8 202.456 307.733C174.323 336.133 157.523 366.667 148.856 405.2C146.19 417.333 145.79 422.8 145.79 445.867C145.79 466.533 146.323 475.067 148.19 483.867C154.19 512.133 167.123 541.2 183.123 562.533C255.256 659.2 394.323 669.867 479.523 585.333C506.856 558.133 525.656 523.067 534.056 483.867C535.923 475.067 536.456 466.533 536.456 445.867C536.456 422.8 536.056 417.333 533.39 405.2C525.256 368.8 508.59 337.467 482.99 310.533C441.39 266.933 380.723 244.4 321.656 250.533ZM370.456 271.2C434.056 281.6 489.523 329.2 509.656 390.8C516.056 410.533 517.656 421.733 517.656 445.867C517.79 470.667 516.056 481.867 509.123 502.8C492.456 552.933 451.39 594.933 401.79 612.667C380.323 620.267 364.723 622.933 341.123 622.933C324.99 622.933 317.523 622.267 306.723 620C269.123 612 239.256 595.6 213.123 568.4C170.323 524 154.056 461.067 169.79 400.667C186.856 334.933 243.923 282.533 310.59 271.333C325.923 268.8 354.856 268.8 370.456 271.2Z" fill="#0099CC"/>
<path d="M344.59 308.133C341.523 308.933 336.856 312 333.123 315.733C327.523 321.2 325.523 325.2 313.123 354.8L299.39 387.867H293.39C288.056 387.867 286.99 387.333 282.056 381.733C275.523 374.4 270.323 371.867 261.123 371.867C249.39 371.867 240.856 376.933 235.39 387.2C232.456 392.533 232.456 393.2 232.456 469.2C232.456 545.2 232.456 545.867 235.39 551.2C245.523 570.133 267.39 573.333 280.856 558C283.123 555.333 285.123 552.533 285.123 551.867C285.123 551.2 313.256 550.533 353.523 550.267C429.523 549.867 426.19 550.267 437.123 540.4C440.19 537.6 443.79 533.067 445.256 530.267C448.323 524.4 467.79 431.467 467.79 423.2C467.79 414.133 463.923 405.2 457.123 398.533C447.523 388.8 443.256 387.867 408.99 387.867H380.056L384.19 375.467C387.523 365.2 388.19 360.933 388.323 349.2C388.456 333.333 387.123 329.467 378.19 319.2C369.123 308.8 356.59 304.8 344.59 308.133ZM363.123 331.067C372.056 340.667 371.923 351.2 362.456 379.6C356.323 397.467 356.056 400.133 359.79 403.867C362.323 406.4 364.19 406.533 398.59 406.533C428.856 406.533 435.39 406.933 439.123 408.667C443.923 410.933 447.123 414.933 448.456 420.267C449.39 423.6 431.923 512.667 428.856 520.267C428.056 522.267 425.656 525.467 423.523 527.2L419.523 530.533H354.323H289.123V468.533V406.533H295.79C303.523 406.533 309.923 404.133 313.656 400.133C314.99 398.533 322.323 382.4 330.056 364.267C337.656 346.133 344.856 330.133 346.056 328.933C347.39 327.333 350.19 326.533 353.523 326.533C357.79 326.533 359.656 327.333 363.123 331.067ZM266.59 393.067L269.656 395.467L270.19 466.8C270.723 531.467 270.59 538.4 268.59 542.267C263.923 551.333 254.59 550.133 251.923 540.267C249.923 533.467 249.923 405.067 251.79 398.267C253.923 390.533 260.59 388.133 266.59 393.067Z" fill="#0099CC"/>
</g>
<defs>
<clipPath id="clip0_11_41">
<rect width="682.667" height="682.667" fill="white"/>
</clipPath>
</defs>
</svg>
